<?xml version="1.0" encoding="UTF-8" standalone="no"?>
<svg
   xmlns:dc="http://purl.org/dc/elements/1.1/"
   xmlns:cc="http://creativecommons.org/ns#"
   xmlns:rdf="http://www.w3.org/1999/02/22-rdf-syntax-ns#"
   xmlns:svg="http://www.w3.org/2000/svg"
   xmlns="http://www.w3.org/2000/svg"
   xmlns:sodipodi="http://sodipodi.sourceforge.net/DTD/sodipodi-0.dtd"
   xmlns:inkscape="http://www.inkscape.org/namespaces/inkscape"
   version="1.1"
   id="Capa_1"
   x="0px"
   y="0px"
   viewBox="0 0 368 368"
   style="enable-background:new 0 0 368 368;"
   xml:space="preserve"
   sodipodi:docname="gear-lung logo.svg"
   inkscape:version="1.0.1 (3bc2e813f5, 2020-09-07)"><metadata
   id="metadata49"><rdf:RDF><cc:Work
       rdf:about=""><dc:format>image/svg+xml</dc:format><dc:type
         rdf:resource="http://purl.org/dc/dcmitype/StillImage" /><dc:title></dc:title></cc:Work></rdf:RDF></metadata><defs
   id="defs47" /><sodipodi:namedview
   pagecolor="#ffffff"
   bordercolor="#666666"
   borderopacity="1"
   objecttolerance="10"
   gridtolerance="10"
   guidetolerance="10"
   inkscape:pageopacity="0"
   inkscape:pageshadow="2"
   inkscape:window-width="1920"
   inkscape:window-height="1017"
   id="namedview45"
   showgrid="false"
   inkscape:zoom="1.6332629"
   inkscape:cx="170.65658"
   inkscape:cy="230.76149"
   inkscape:window-x="-8"
   inkscape:window-y="-8"
   inkscape:window-maximized="1"
   inkscape:current-layer="layer1" />
<g
   id="g6">
	<g
   id="g4">
		<path
   d="M344,144h-29.952c-2.512-8.2-5.8-16.12-9.792-23.664l21.16-21.16c4.528-4.528,7.024-10.56,7.024-16.984    c0-6.416-2.496-12.448-7.024-16.976l-22.64-22.64c-9.048-9.048-24.888-9.072-33.952,0l-21.16,21.16    c-7.536-3.992-15.464-7.272-23.664-9.792V24c0-13.232-10.768-24-24-24h-32c-13.232,0-24,10.768-24,24v29.952    c-8.2,2.52-16.12,5.8-23.664,9.792l-21.168-21.16c-9.36-9.36-24.592-9.36-33.952,0l-22.648,22.64    c-9.352,9.36-9.352,24.592,0,33.952l21.16,21.168c-3.992,7.536-7.272,15.464-9.792,23.664H24c-13.232,0-24,10.768-24,24v32    C0,213.232,10.768,224,24,224h29.952c2.52,8.2,5.8,16.12,9.792,23.664l-21.16,21.168c-9.36,9.36-9.36,24.592,0,33.952    l22.64,22.648c9.36,9.352,24.592,9.352,33.952,0l21.168-21.16c7.536,3.992,15.464,7.272,23.664,9.792V344    c0,13.232,10.768,24,24,24h32c13.232,0,24-10.768,24-24v-29.952c8.2-2.52,16.128-5.8,23.664-9.792l21.16,21.168    c9.072,9.064,24.912,9.048,33.952,0l22.64-22.64c4.528-4.528,7.024-10.56,7.024-16.976c0-6.424-2.496-12.448-7.024-16.976    l-21.16-21.168c3.992-7.536,7.272-15.464,9.792-23.664H344c13.232,0,24-10.768,24-24v-32C368,154.768,357.232,144,344,144z     M352,200c0,4.408-3.584,8-8,8h-36c-3.648,0-6.832,2.472-7.744,6c-2.832,10.92-7.144,21.344-12.832,30.976    c-1.848,3.144-1.344,7.144,1.232,9.72l25.44,25.448c1.504,1.504,2.336,3.512,2.336,5.664c0,2.152-0.832,4.16-2.336,5.664    l-22.64,22.64c-3.008,3.008-8.312,3.008-11.328,0l-25.44-25.44c-2.576-2.584-6.576-3.08-9.728-1.232    c-9.616,5.68-20.04,10-30.968,12.824c-3.52,0.904-5.992,4.088-5.992,7.736v36c0,4.408-3.584,8-8,8h-32c-4.408,0-8-3.592-8-8v-36    c0-3.648-2.472-6.832-6-7.744c-10.92-2.824-21.344-7.136-30.976-12.824c-1.264-0.752-2.664-1.112-4.064-1.112    c-2.072,0-4.12,0.8-5.664,2.344l-25.44,25.44c-3.128,3.12-8.2,3.12-11.328,0l-22.64-22.64c-3.128-3.128-3.128-8.208,0-11.328    l25.44-25.44c2.584-2.584,3.088-6.584,1.232-9.72c-5.68-9.632-10-20.048-12.824-30.976c-0.904-3.528-4.088-6-7.736-6H24    c-4.408,0-8-3.592-8-8v-32c0-4.408,3.592-8,8-8h36c3.648,0,6.832-2.472,7.744-6c2.824-10.92,7.136-21.344,12.824-30.976    c1.856-3.144,1.352-7.144-1.232-9.72l-25.44-25.44c-3.12-3.12-3.12-8.2,0-11.328l22.64-22.64c3.128-3.128,8.2-3.12,11.328,0    l25.44,25.44c2.584,2.584,6.576,3.096,9.72,1.232c9.632-5.68,20.048-10,30.976-12.824c3.528-0.912,6-4.096,6-7.744V24    c0-4.408,3.592-8,8-8h32c4.416,0,8,3.592,8,8v36c0,3.648,2.472,6.832,6,7.744c10.928,2.824,21.352,7.144,30.968,12.824    c3.152,1.856,7.152,1.36,9.728-1.232l25.44-25.44c3.016-3.024,8.32-3.016,11.328,0l22.64,22.64    c1.504,1.504,2.336,3.52,2.336,5.664s-0.832,4.16-2.336,5.664l-25.44,25.44c-2.576,2.584-3.088,6.584-1.232,9.72    c5.688,9.632,10,20.048,12.832,30.976c0.904,3.528,4.088,6,7.736,6h36c4.416,0,8,3.592,8,8V200z"
   id="path2" />
	</g>
</g>
<g
   id="g12"
   transform="translate(-2.1646881,1.731781)">
	<g
   id="g10">
		<path
   d="m 184,112 c -39.696,0 -72,32.304 -72,72 0,39.696 32.304,72 72,72 39.704,0 72,-32.304 72,-72 0,-39.696 -32.296,-72 -72,-72 z m 0,128 c -30.88,0 -56,-25.12 -56,-56 0,-30.88 25.12,-56 56,-56 30.872,0 56,25.12 56,56 0,30.88 -25.128,56 -56,56 z"
   id="path8" />
	</g>
</g>
<g
   id="g14">
</g>
<g
   id="g16">
</g>
<g
   id="g18">
</g>
<g
   id="g20">
</g>
<g
   id="g22">
</g>
<g
   id="g24">
</g>
<g
   id="g26">
</g>
<g
   id="g28">
</g>
<g
   id="g30">
</g>
<g
   id="g32">
</g>
<g
   id="g34">
</g>
<g
   id="g36">
</g>
<g
   id="g38">
</g>
<g
   id="g40">
</g>
<g
   id="g42">
</g>
<ellipse
   style="fill:#000000;stroke-width:1.37646"
   id="path51"
   cx="181.83531"
   cy="185.73178"
   rx="103.47295"
   ry="106.63529" /><ellipse
   style="fill:#ffffff;stroke-width:1.18336"
   id="path51-4"
   cx="181.83531"
   cy="185.73178"
   rx="88.103539"
   ry="92.56469" /><g
   inkscape:groupmode="layer"
   id="layer1"
   inkscape:label="Gear"><g
     id="g205"
     transform="matrix(0.28486848,0,0,0.2667689,110.61811,119.03956)"><g
       id="g130">
	<g
   id="g128">
		<path
   d="m 304.616,166.29 c -29.72,0 -31.176,-9.652 -31.176,-28.156 V 37.126 c 0,-12.924 -10.516,-23.44 -23.44,-23.44 -12.924,0 -23.44,10.516 -23.44,23.44 v 101.008 c 0,18.504 -1.456,28.156 -31.184,28.156 -2.16,0 -3.976,1.748 -3.976,3.908 v 39.068 c 0,2.16 1.832,3.908 3.992,3.908 23.22,0 41.596,-5.324 54.596,-15.832 13.004,10.508 31.412,15.832 54.628,15.832 2.16,0 3.984,-1.748 3.984,-3.908 v -39.068 c 0,-2.16 -1.824,-3.908 -3.984,-3.908 z"
   id="path126" />
	</g>
</g><g
       id="g136">
	<g
   id="g134">
		<path
   d="m 205.024,270.586 c -2.752,-24.696 -5.588,-50.244 -5.588,-74.996 0,-62.82 -6.876,-146.332 -66.276,-146.332 -72.22,0 -133.156,191.752 -133.156,312.156 -0.028,3.8 -0.472,93.38 24.06,118.108 4.472,4.504 9.568,6.792 15.156,6.792 14.764,0 22.104,-5.64 32.268,-13.436 12.752,-9.788 30.208,-23.196 74.508,-35.968 75.104,-21.656 67.3,-91.92 59.028,-166.324 z"
   id="path132" />
	</g>
</g><g
       id="g142">
	<g
   id="g140">
		<path
   d="m 499.996,361.446 c 0,-120.432 -60.932,-312.188 -133.148,-312.188 -59.408,0 -66.272,83.512 -66.272,146.332 0,24.752 -2.84,50.296 -5.584,74.996 -8.272,74.404 -16.084,144.668 59.028,166.324 44.292,12.772 61.752,26.18 74.5,35.96 10.164,7.804 17.504,13.444 32.268,13.444 5.584,0 10.68,-2.288 15.152,-6.792 24.528,-24.728 24.088,-114.304 24.056,-118.076 z"
   id="path138" />
	</g>
</g><g
       id="g144">
</g><g
       id="g146">
</g><g
       id="g148">
</g><g
       id="g150">
</g><g
       id="g152">
</g><g
       id="g154">
</g><g
       id="g156">
</g><g
       id="g158">
</g><g
       id="g160">
</g><g
       id="g162">
</g><g
       id="g164">
</g><g
       id="g166">
</g><g
       id="g168">
</g><g
       id="g170">
</g><g
       id="g172">
</g></g></g></svg>
